# xmcd
#
# Track frame offsets: 
#        150
#        11998
#        28960
#        49616
#        72092
#        91414
#        106194
#        125892
#        143995
#        165378
#        186915
#        201123
#        216865
#        230278
#        243722
#
# Disc length: 3482 seconds
#
# Revision: 0
# Processed by: cddbd v1.4PL0 Copyright (c) Steve Scherf et al.
# Submitted via: ExactAudioCopy v0.90a11
#
DISCID=db0d980f
DTITLE=Little George Sueref and the Blue Stars - Little George Sueref 
DTITLE=and the Blue Stars
DYEAR=1900
DGENRE=
TTITLE0=Six sixty six
TTITLE1=Feel so lonesome
TTITLE2=Tell your mother
TTITLE3=Papers
TTITLE4=Treat your daddy right
TTITLE5=Finger lickin'
TTITLE6=The clock
TTITLE7=Living in the city
TTITLE8=Everyday about this time
TTITLE9=3-6-9
TTITLE10=I'm leaving
TTITLE11=Catfish
TTITLE12=Further on down the line
TTITLE13=Rhythm rockin' boogie
TTITLE14=Don't take your daughter
EXTD=
EXTT0=
EXTT1=
EXTT2=
EXTT3=
EXTT4=
EXTT5=
EXTT6=
EXTT7=
EXTT8=
EXTT9=
EXTT10=
EXTT11=
EXTT12=
EXTT13=
EXTT14=
PLAYORDER=
